# xmcd
#
# Track frame offsets:
#	150
#	16913
#	38468
#	54675
#	71745
#	93403
#	104864
#	123401
#	135485
#	147206
#	160486
#	177102
#	193246
#	207397
#	227496
#	244068
#
# Disc length: 3484 seconds
#
# Revision: 1
# Processed by: cddbd v1.5.2PL0 Copyright (c) Steve Scherf et al.
# Submitted via: audiograbber 1.83.01
#
DISCID=e50d9a10
DTITLE=JTG303 - Just Tracks Dixie Chicks
DYEAR=1900
DGENRE=
TTITLE0=Dixie Chicks - Wide Open Spaces
TTITLE1=Dixie Chicks - Cowboy Take Me Away
TTITLE2=Dixie Chicks - Tonight The Heartache's On Me
TTITLE3=Dixie Chicks - Tortured Tangled Hearts
TTITLE4=Dixie Chicks - Travelin' Soldier
TTITLE5=Dixie Chicks - White Trash Wedding
TTITLE6=Dixie Chicks - Landslide
TTITLE7=Emmylou Harris and Dixie Chicks - Roses In The Snow
TTITLE8=Dixie Chicks - Some Days You Gotta Dance
TTITLE9=Dixie Chicks - Let 'er Rip
TTITLE10=Dixie Chicks - Loving Arms
TTITLE11=Dixie Chicks - Once You've Loved Somebody
TTITLE12=Dixie Chicks - I Can Love You Better
TTITLE13=Dixie Chicks - Goodbye Earl
TTITLE14=Dixie Chicks - Without You
TTITLE15=Dixie Chicks - Ready To Run
EXTD=
EXTT0=
EXTT1=
EXTT2=
EXTT3=
EXTT4=
EXTT5=
EXTT6=
EXTT7=
EXTT8=
EXTT9=
EXTT10=
EXTT11=
EXTT12=
EXTT13=
EXTT14=
EXTT15=
PLAYORDER=
